<svg xmlns="http://www.w3.org/2000/svg" xmlns:xlink="http://www.w3.org/1999/xlink" viewBox="0,0,256,256" width="96px" height="96px" fill-rule="nonzero"><defs><linearGradient x1="-67.013" y1="-20.175" x2="-35.864" y2="-52.601" gradientUnits="userSpaceOnUse" id="color-1"><stop offset="0" stop-color="#21ad64"></stop><stop offset="1" stop-color="#088242"></stop></linearGradient><linearGradient x1="-3.965" y1="4.688" x2="30.418" y2="39.071" gradientUnits="userSpaceOnUse" id="color-2"><stop offset="0" stop-color="#fed100"></stop><stop offset="1" stop-color="#e36001"></stop></linearGradient></defs><g fill="none" fill-rule="nonzero" stroke="none" stroke-width="1" stroke-linecap="butt" stroke-linejoin="miter" stroke-miterlimit="10" stroke-dasharray="" stroke-dashoffset="0" font-family="none" font-weight="none" font-size="none" text-anchor="none" style="mix-blend-mode: normal"><g transform="scale(5.33333,5.33333)"><g transform="translate(30.588,0.01) scale(0.35278,-0.35278)" fill="url(#color-1)"><path d="M-3.488,-12.991l26.973,-53.638c0.605,-1.203 0.349,-2.66 -0.629,-3.586l-56.7,-53.632c-2.244,-2.123 -5.86,0.053 -5.035,3.03l29.727,107.271c0.745,2.688 4.41,3.048 5.664,0.555z"></path></g><path d="M25.729,10.67l-7.631,27.536l13.43,-12.698c0.661,-0.625 0.837,-1.629 0.429,-2.44z" fill="#000000" opacity="0.05"></path><path d="M25.53,11.388l-7.173,25.885l12.828,-12.129c0.502,-0.475 0.636,-1.236 0.326,-1.853z" fill="#000000" opacity="0.07"></path><path d="M21.557,4.593l9.507,18.922c0.213,0.424 0.123,0.938 -0.222,1.265l-20.011,18.92c-0.792,0.749 -2.067,-0.019 -1.776,-1.07l10.504,-37.842c0.263,-0.948 1.556,-1.074 1.998,-0.195z" fill="url(#color-2)"></path></g></g><g fill="#0b6047" fill-rule="nonzero" stroke="none" stroke-width="1" stroke-linecap="butt" stroke-linejoin="miter" stroke-miterlimit="10" stroke-dasharray="" stroke-dashoffset="0" font-family="none" font-weight="none" font-size="none" text-anchor="none" style="mix-blend-mode: normal"><g><path d="M74.895,252.74h-2.54l0.15,-0.81c0.31333,-0.15333 0.63333,-0.28667 0.96,-0.4c0.32667,-0.11333 0.64,-0.18333 0.94,-0.21v0l2.56,-12.08c-0.28667,-0.05333 -0.57333,-0.13333 -0.86,-0.24c-0.28,-0.10667 -0.53667,-0.23333 -0.77,-0.38v0l0.18,-0.81h3.39c0.54,0 1.06333,-0.02 1.57,-0.06c0.5,-0.04667 1.06333,-0.07 1.69,-0.07v0c0.68667,0 1.31333,0.05333 1.88,0.16c0.56667,0.10667 1.05333,0.27 1.46,0.49c0.40667,0.22 0.72333,0.51333 0.95,0.88c0.22667,0.36 0.34,0.79667 0.34,1.31v0c0,0.6 -0.10333,1.13333 -0.31,1.6c-0.20667,0.46667 -0.49,0.88 -0.85,1.24c-0.36667,0.35333 -0.79667,0.64333 -1.29,0.87c-0.5,0.22667 -1.04,0.39667 -1.62,0.51v0v0.09c0.38,0.02667 0.76333,0.09667 1.15,0.21c0.38,0.11333 0.72333,0.28667 1.03,0.52c0.30667,0.22667 0.55667,0.51333 0.75,0.86c0.19333,0.34667 0.29,0.76333 0.29,1.25v0c0,0.76667 -0.15333,1.46667 -0.46,2.1c-0.30667,0.63333 -0.76,1.18 -1.36,1.64c-0.59333,0.46 -1.34,0.82 -2.24,1.08c-0.89333,0.25333 -1.93,0.38 -3.11,0.38v0c-0.3,0 -0.62333,-0.00667 -0.97,-0.02c-0.34667,-0.01333 -0.7,-0.02667 -1.06,-0.04c-0.35333,-0.01333 -0.69333,-0.02667 -1.02,-0.04c-0.32667,-0.02 -0.60333,-0.03 -0.83,-0.03zM79.055,251.49v0c0.52667,0 1.01,-0.09333 1.45,-0.28c0.44,-0.18667 0.81667,-0.44667 1.13,-0.78c0.31333,-0.33333 0.55667,-0.72333 0.73,-1.17c0.18,-0.45333 0.27,-0.94 0.27,-1.46v0c0,-0.78667 -0.25333,-1.30667 -0.76,-1.56c-0.5,-0.26 -1.20667,-0.39 -2.12,-0.39v0h-1.13l-1.15,5.49c0.18667,0.04 0.38667,0.07333 0.6,0.1c0.21333,0.03333 0.54,0.05 0.98,0.05zM78.925,244.47h0.68c0.24,0 0.48667,-0.01 0.74,-0.03c0.24667,-0.02667 0.47667,-0.05333 0.69,-0.08v0c0.85333,-0.32667 1.49333,-0.79667 1.92,-1.41c0.42667,-0.60667 0.64,-1.31667 0.64,-2.13v0c0,-0.55333 -0.16333,-0.98333 -0.49,-1.29c-0.32667,-0.30667 -0.86,-0.46 -1.6,-0.46v0c-0.3,0 -0.56667,0.00667 -0.8,0.02c-0.23333,0.01333 -0.45,0.03667 -0.65,0.07v0zM89.935,238.45l-1.41,-0.28v-0.68c0.21333,-0.08667 0.48667,-0.17667 0.82,-0.27c0.33333,-0.08667 0.69667,-0.17 1.09,-0.25c0.38667,-0.08 0.78667,-0.14667 1.2,-0.2c0.41333,-0.06 0.80667,-0.09 1.18,-0.09v0l0.44,0.19l-1.79,8.3h0.11c0.26667,-0.45333 0.57,-0.88667 0.91,-1.3c0.33333,-0.41333 0.68333,-0.77333 1.05,-1.08c0.37333,-0.30667 0.76667,-0.54667 1.18,-0.72c0.40667,-0.18 0.82333,-0.27 1.25,-0.27v0c0.66,0 1.16667,0.19 1.52,0.57c0.35333,0.37333 0.53,0.83667 0.53,1.39v0c0,0.38667 -0.03333,0.8 -0.1,1.24c-0.07333,0.44 -0.16,0.86667 -0.26,1.28v0l-1.22,4.97h1.58v0.73c-0.28,0.22667 -0.69667,0.44 -1.25,0.64c-0.54667,0.2 -1.16667,0.3 -1.86,0.3v0c-0.47333,0 -0.81667,-0.09667 -1.03,-0.29c-0.21333,-0.19333 -0.32,-0.42667 -0.32,-0.7v0c0,-0.25333 0.03333,-0.51667 0.1,-0.79c0.06667,-0.26667 0.13333,-0.57667 0.2,-0.93v0l0.79,-3.57c0.1,-0.44 0.19,-0.84 0.27,-1.2c0.08,-0.36667 0.12,-0.71333 0.12,-1.04v0c0,-0.25333 -0.05333,-0.46667 -0.16,-0.64c-0.10667,-0.16667 -0.26667,-0.25 -0.48,-0.25v0c-0.33333,0 -0.66333,0.11667 -0.99,0.35c-0.32667,0.23333 -0.63,0.51333 -0.91,0.84c-0.28667,0.32667 -0.54,0.67 -0.76,1.03c-0.22,0.35333 -0.38,0.65 -0.48,0.89v0l-1.26,6.1h-2.94zM101.575,243.59l-1.32,-0.3v-0.72c0.21333,-0.08667 0.5,-0.17667 0.86,-0.27c0.35333,-0.09333 0.73,-0.17333 1.13,-0.24c0.39333,-0.07333 0.78667,-0.13333 1.18,-0.18c0.39333,-0.05333 0.73667,-0.08 1.03,-0.08v0l0.39,0.26l-1.92,9.19h1.49v0.73c-0.18667,0.12667 -0.40333,0.24667 -0.65,0.36c-0.24667,0.11333 -0.51,0.21333 -0.79,0.3c-0.27333,0.08667 -0.55333,0.15333 -0.84,0.2c-0.28667,0.05333 -0.55667,0.08 -0.81,0.08v0c-0.54,0 -0.91333,-0.10333 -1.12,-0.31c-0.20667,-0.20667 -0.31,-0.43333 -0.31,-0.68v0c0,-0.28 0.02,-0.55667 0.06,-0.83c0.04667,-0.26667 0.10333,-0.56333 0.17,-0.89v0zM102.025,238.49v0c0,-0.48 0.16333,-0.85667 0.49,-1.13c0.32667,-0.26667 0.74,-0.4 1.24,-0.4v0c0.54,0 0.97,0.13333 1.29,0.4c0.32,0.27333 0.48,0.65 0.48,1.13v0c0,0.46 -0.16,0.82333 -0.48,1.09c-0.32,0.27333 -0.75,0.41 -1.29,0.41v0c-0.5,0 -0.91333,-0.13667 -1.24,-0.41c-0.32667,-0.26667 -0.49,-0.63 -0.49,-1.09zM118.325,250.21l0.92,-3.89c0.07333,-0.32667 0.15,-0.67667 0.23,-1.05c0.08667,-0.38 0.13,-0.67667 0.13,-0.89v0c0,-0.26667 -0.04667,-0.48 -0.14,-0.64c-0.09333,-0.15333 -0.26,-0.23 -0.5,-0.23v0c-0.24,0 -0.49,0.08667 -0.75,0.26c-0.25333,0.18 -0.5,0.41667 -0.74,0.71c-0.24,0.29333 -0.47333,0.62333 -0.7,0.99c-0.22,0.36667 -0.41333,0.74333 -0.58,1.13v0l-1.39,6.12h-2.86l1.3,-5.99c0.1,-0.44 0.18667,-0.86667 0.26,-1.28c0.07333,-0.41333 0.11,-0.79667 0.11,-1.15v0c0,-0.52667 -0.2,-0.79 -0.6,-0.79v0c-0.2,0 -0.42667,0.09 -0.68,0.27c-0.26,0.18667 -0.51667,0.42667 -0.77,0.72c-0.26,0.29333 -0.50333,0.62333 -0.73,0.99c-0.22667,0.37333 -0.40333,0.75 -0.53,1.13v0l-1.24,6.1h-2.98l1.89,-9.15l-1.21,-0.28v-0.72c0.22667,-0.11333 0.50667,-0.22 0.84,-0.32c0.33333,-0.1 0.68667,-0.18333 1.06,-0.25c0.36667,-0.06 0.74333,-0.11 1.13,-0.15c0.38,-0.03333 0.73333,-0.05 1.06,-0.05v0l0.45,0.26l-0.83,3.11h0.09c0.21333,-0.38 0.47,-0.77333 0.77,-1.18c0.30667,-0.40667 0.65333,-0.77 1.04,-1.09c0.38667,-0.32 0.8,-0.58333 1.24,-0.79c0.44,-0.20667 0.88667,-0.31 1.34,-0.31v0c0.17333,0 0.35,0.03 0.53,0.09c0.18667,0.05333 0.36333,0.15667 0.53,0.31c0.16,0.14667 0.29,0.34667 0.39,0.6c0.1,0.26 0.15,0.58667 0.15,0.98v0c0,0.2 -0.01667,0.43 -0.05,0.69c-0.04,0.25333 -0.08667,0.48667 -0.14,0.7v0c0.24,-0.44 0.52333,-0.86667 0.85,-1.28c0.32667,-0.41333 0.68,-0.77333 1.06,-1.08c0.37333,-0.3 0.77,-0.54333 1.19,-0.73c0.42,-0.18667 0.85667,-0.28 1.31,-0.28v0c0.54667,0 0.99,0.17 1.33,0.51c0.34,0.34 0.51,0.81 0.51,1.41v0c0,0.45333 -0.04333,0.88667 -0.13,1.3c-0.08667,0.41333 -0.18,0.84667 -0.28,1.3v0l-1.21,4.93h1.49v0.73c-0.14,0.11333 -0.33667,0.22667 -0.59,0.34c-0.24667,0.11333 -0.51333,0.21333 -0.8,0.3c-0.28,0.08 -0.57,0.15 -0.87,0.21c-0.3,0.06 -0.57667,0.09 -0.83,0.09v0c-0.51333,0 -0.87,-0.10333 -1.07,-0.31c-0.2,-0.20667 -0.3,-0.44 -0.3,-0.7v0c0,-0.41333 0.1,-0.98 0.3,-1.7zM131.575,238.6l0.17,-0.81h6.57l-0.17,0.81c-0.51333,0.3 -1.09667,0.50667 -1.75,0.62v0l-1.68,7.96c-0.28667,1.39333 -0.18,2.40333 0.32,3.03c0.49333,0.62 1.27333,0.93 2.34,0.93v0c1,0 1.83333,-0.28667 2.5,-0.86c0.66667,-0.57333 1.15,-1.55667 1.45,-2.95v0l1.68,-8c-0.32667,-0.07333 -0.65,-0.17333 -0.97,-0.3c-0.32,-0.12667 -0.57,-0.27 -0.75,-0.43v0l0.17,-0.81h5.29l-0.17,0.81c-0.26,0.18667 -0.56333,0.33667 -0.91,0.45c-0.34667,0.11333 -0.68333,0.20667 -1.01,0.28v0l-1.71,8.02c-0.38667,1.83333 -1.08667,3.22 -2.1,4.16c-1.02,0.94 -2.47333,1.41 -4.36,1.41v0c-2.03333,0 -3.46,-0.53333 -4.28,-1.6c-0.82,-1.06667 -1.03,-2.52667 -0.63,-4.38v0l1.62,-7.72c-0.28667,-0.06 -0.58,-0.14 -0.88,-0.24c-0.30667,-0.09333 -0.55333,-0.22 -0.74,-0.38zM150.245,247.03l-0.9,4.26c0.36667,0.06 0.72667,0.14333 1.08,0.25c0.34667,0.10667 0.65667,0.23 0.93,0.37v0l-0.15,0.81h-7.11l0.15,-0.81c0.62667,-0.3 1.26,-0.50667 1.9,-0.62v0l2.56,-12.07c-0.31333,-0.06 -0.60333,-0.14333 -0.87,-0.25c-0.27333,-0.10667 -0.52333,-0.23 -0.75,-0.37v0l0.17,-0.81h2.69c0.56667,0 1.22333,-0.03 1.97,-0.09c0.74667,-0.05333 1.42667,-0.08 2.04,-0.08v0c0.74,0 1.42667,0.06333 2.06,0.19c0.63333,0.12667 1.17333,0.33 1.62,0.61c0.44667,0.28 0.79667,0.64667 1.05,1.1c0.26,0.45333 0.39,1.00667 0.39,1.66v0c0,0.84 -0.15667,1.62 -0.47,2.34c-0.31333,0.72 -0.77,1.34 -1.37,1.86c-0.59333,0.52667 -1.32333,0.94333 -2.19,1.25c-0.87333,0.30667 -1.85667,0.46 -2.95,0.46v0c-0.06667,0 -0.18333,0 -0.35,0c-0.16667,0 -0.34333,-0.00333 -0.53,-0.01c-0.19333,-0.00667 -0.38,-0.01333 -0.56,-0.02c-0.17333,-0.00667 -0.31,-0.01667 -0.41,-0.03zM153.165,239.01v0c-0.28667,0 -0.52667,0.01333 -0.72,0.04c-0.18667,0.02667 -0.36,0.05333 -0.52,0.08v0l-1.39,6.49c0.13333,0.02667 0.32667,0.04667 0.58,0.06c0.25333,0.01333 0.46,0.02 0.62,0.02v0c0.61333,0 1.15333,-0.11 1.62,-0.33c0.46667,-0.22 0.86,-0.53 1.18,-0.93c0.32,-0.40667 0.56667,-0.88333 0.74,-1.43c0.17333,-0.55333 0.26,-1.16333 0.26,-1.83v0c0,-0.32667 -0.04,-0.62333 -0.12,-0.89c-0.08,-0.27333 -0.20667,-0.50667 -0.38,-0.7c-0.18,-0.19333 -0.42333,-0.33667 -0.73,-0.43c-0.30667,-0.1 -0.68667,-0.15 -1.14,-0.15zM164.645,251.91l-0.15,0.81h-6.66l0.15,-0.81c0.66667,-0.31333 1.29333,-0.52 1.88,-0.62v0l2.56,-12.07c-0.28667,-0.04 -0.57,-0.11333 -0.85,-0.22c-0.27333,-0.10667 -0.52333,-0.24 -0.75,-0.4v0l0.17,-0.81h6.65l-0.17,0.81c-0.28,0.16 -0.58667,0.29333 -0.92,0.4c-0.34,0.10667 -0.65,0.18 -0.93,0.22v0l-2.56,12.07c0.26667,0.06 0.54333,0.14 0.83,0.24c0.28667,0.1 0.53667,0.22667 0.75,0.38z"></path></g></g></svg>